# xmcd
#
# Track frame offsets: 
#        150
#        23010
#        40800
#        56870
#        71805
#        89887
#        106032
#        130265
#        147387
#        161100
#        175715
#        191085
#        209342
#        228655
#        247952
#
# Disc length: 3533 seconds
#
# Revision: 0
# Processed by: cddbd v1.4PL0 Copyright (c) Steve Scherf et al.
# Submitted via: ExactAudioCopy v0.90a11
#
DISCID=dd0dcb0f
DTITLE=The Judds - Their Sweetest Gift (The Farewell Concert 12-04-94)
DYEAR=1900
DGENRE=
TTITLE0=Born To Be Blue
TTITLE1=Give A Little Love
TTITLE2=Mama, He's Crazy
TTITLE3=Don't Be Cruel (With Jordanaires)
TTITLE4=River Of Time
TTITLE5=Had A Dream For The Heart
TTITLE6=Rompin' Stompin' Bad News Blues
TTITLE7=Guardian Angel
TTITLE8=The Sweetest Gift ( A Mothers Smile)
TTITLE9=Rockin' With The Rhythm
TTITLE10=Maybe Your Baby's Got The Blues
TTITLE11=Have Mercy
TTITLE12=Let Me Tell You About Love (With Carl Perkins)
TTITLE13=Love Is Alive
TTITLE14=Turn It Loose
EXTD=
EXTT0=
EXTT1=
EXTT2=
EXTT3=
EXTT4=
EXTT5=
EXTT6=
EXTT7=
EXTT8=
EXTT9=
EXTT10=
EXTT11=
EXTT12=
EXTT13=
EXTT14=
PLAYORDER=
